<svg xmlns="http://www.w3.org/2000/svg" width="104" height="52" viewBox="0 0 104 52">
    <g fill="none" fill-rule="evenodd">
        <g>
            <g>
                <g>
                    <path fill="#FFF" fill-opacity="0" d="M0 0H104V52H0z" transform="translate(-72 -8000) translate(0 7920) translate(72 80)"/>
                    <path fill="#155ED4" d="M88.118 11.796c4.455 0 8.15 1.332 10.923 3.868l-3.322 4.32c-2.264-2.08-5.294-3.04-8.025-3.04-2.688 0-4.116 1.165-4.116 2.828 0 1.872 2.352 2.454 5.587 3.202 4.621 1.04 10.502 2.414 10.502 8.57 0 5.073-3.654 8.9-11.217 8.9-5.376 0-9.241-1.789-11.888-4.408l3.277-4.489c2.344 2.41 5.559 3.76 8.91 3.744 3.276 0 4.872-1.54 4.872-3.12 0-2.08-2.436-2.787-5.67-3.535-4.575-1.04-10.46-2.289-10.46-8.481 0-4.617 4.032-8.36 10.627-8.36zM46.29 13.014c1.885-1.944 4.53-1.37 4.53-1.37V27.7c0 6.954-5.72 12.615-12.745 12.615-3.978 0-7.65-1.782-10.074-4.892-.06-.07-.048-.174.011-.245.036-.035.094-.058.141-.058.036 0 .07.011.106.035 1.683 1.06 3.661 1.654 5.708 1.712h.341c3.014-.012 5.874-1.152 7.862-3.156 1.696-1.713 2.613-3.926 2.566-6.21v-9.7c.006-1.587.099-3.287 1.554-4.788zm18.882-1.458c1.977 0 3.613.489 4.707 1.421.99.827 1.53 2.004 1.53 3.297 0 1.328-.259 2.283-.8 3.005-.035.047-.094.082-.153.082l-.012-.012c-.07 0-.129-.047-.153-.105-.518-1.025-1.565-1.654-2.719-1.654h-7.448v6.057h5.954c.26 0 .518-.035.778-.094 3.4-.546 5.942-3.412 5.942-6.662 0-.967-.223-1.899-.658-2.784-.036-.08-.012-.186.059-.233.035-.024.07-.035.117-.035.048 0 .094.011.13.047 1.93 1.723 3.048 4.194 3.048 6.756 0 5.009-4.12 9.086-9.18 9.086h-6.19V40.04H54.05V11.556zm-42.515.035v3.179c0 .734-.278 1.467-.834 2.027-.557.56-1.286.84-2.015.84h-9.39v6.057h10.521v2.938c0 .798-.303 1.596-.908 2.205-.605.61-1.398.914-2.192.914h-7.422v10.1H4.345l-.012-28.26h18.324zm3.36.067s2.461-.586 4.43 1.273c1.355 1.28 1.644 2.991 1.644 4.485v12.41c0 2.318 1.282 4.485 3.354 5.637.07.047.117.129.093.21-.023.082-.093.14-.176.152-.27.023-.53.035-.789.035-4.8 0-8.567-3.25-8.567-7.385z" transform="translate(-72 -8000) translate(0 7920) translate(72 80)"/>
                </g>
            </g>
        </g>
    </g>
</svg>
