<svg xmlns="http://www.w3.org/2000/svg" width="128" height="66" viewBox="0 0 128 66">
    <defs>
        <linearGradient id="7xph5dkyna" x1="16.148%" x2="85.832%" y1="48.33%" y2="51.75%">
            <stop offset="0%" stop-color="#222357"/>
            <stop offset="100%" stop-color="#254AA5"/>
        </linearGradient>
    </defs>
    <g fill="none" fill-rule="evenodd">
        <g fill="url(#7xph5dkyna)" fill-rule="nonzero" transform="translate(-614.000000, -8352.000000)">
            <g>
                <g>
                    <g>
                        <g>
                            <path d="M27.215 11.713c-.03-2.398 2.11-3.737 3.721-4.532 1.656-.817 2.212-1.34 2.206-2.07-.013-1.118-1.32-1.611-2.546-1.63-2.136-.034-3.378.584-4.365 1.051L25.46.884C26.451.42 28.286.018 30.189 0c4.465 0 7.387 2.233 7.403 5.696.017 4.395-6 4.639-5.959 6.603.014.596.575 1.231 1.805 1.393.608.082 2.288.144 4.192-.745l.747 3.53c-1.024.379-2.34.74-3.979.74-4.203 0-7.16-2.263-7.183-5.504m18.344 5.2c-.815 0-1.503-.482-1.81-1.221L37.372.259h4.462l.888 2.487h5.453L48.69.259h3.933L49.19 16.913H45.56m.624-4.499l1.288-6.253h-3.527l2.24 6.253m-24.38 4.5L18.288.258h4.252l3.516 16.654h-4.25m-6.291 0L11.088 5.578l-1.79 9.638c-.21 1.076-1.04 1.697-1.961 1.697H.1L0 16.43c1.485-.327 3.173-.854 4.195-1.417.626-.344.805-.645 1.01-1.464L8.596.26h4.494l6.89 16.654h-4.466" transform="translate(0.000000, 7920.000000) translate(340.000000, 432.000000) translate(274.000000, 0.000000) translate(37.688889, 24.391304) translate(26.311111, 8.608696) scale(-1, 1) rotate(-180.000000) translate(-26.311111, -8.608696)"/>
                        </g>
                    </g>
                </g>
            </g>
        </g>
    </g>
</svg>
