<svg xmlns="http://www.w3.org/2000/svg" width="128" height="66" viewBox="0 0 128 66">
    <g fill="none" fill-rule="evenodd">
        <g fill-rule="nonzero">
            <g>
                <g>
                    <g>
                        <g>
                            <path fill="#225E63" d="M34.995 0l4.78 10.748c-.544.749-2.172 3.018-3.703 5.242V8.855h-4.335v9.552c-.597-.409-1.226-.696-1.832-.8v-.478l-.005-.024c-.008-.018-.026-.02-.045-.001 0 0-.47.375-2.526.587-.582.063-.867.038-1.077 0-2.923-.5-3.059-2.65-3.059-2.65 0-.025-.005-.06-.01-.09l-.002-.035v-.824c0-.038 0-.1.012-.125 0 0 .187-2.179 2.813-2.535l.246-.028h1.077l.195.03c1.16.197 2.071.758 2.071.758.028.01.049.005.058-.014l.004-.024v-2.9l-.008-.036c-.01-.024-.03-.047-.054-.063 0 0-.57-.375-2.303-.475-.087-.05-1.61-.063-2.019 0-6.093.494-6.526 4.806-6.55 5.287v1.217c.017.55.333 4.815 6.55 5.207.172.013.387.02.612.021h.341c.512-.003.992-.021 1.066-.021h.022c.122.687.434 1.419.873 2.11l.17.258-18.661 5.937L0 2l34.995-2zM12.318 8.851l-.096.004H6.748l-.032.008c-.013.007-.021.017-.026.031l-.004.023v11.336l.008.033c.007.012.018.021.031.026l.023.004h4.223l.032-.008c.013-.007.022-.018.026-.032l.004-.023V16.93l.008-.033c.01-.019.029-.03.054-.03 0 0 6.749.488 6.749-4.074 0-3.532-4.05-3.98-5.526-3.94zm29.933 7.459l.793 1.775-2.44.775c.483-.863 1.065-1.813 1.647-2.55zm7.938-1.675c.347 0 .607.075.805.213.198.137.346.35.433.65l-.743.162c-.025-.087-.05-.15-.087-.187-.05-.063-.099-.113-.173-.15-.074-.038-.149-.05-.223-.05-.186 0-.334.075-.433.237-.075.113-.112.3-.112.538 0 .3.05.512.137.624.086.113.222.175.383.175s.285-.05.36-.137c.099-.113.16-.237.198-.412l.743.224c-.05.213-.124.388-.236.525-.111.138-.235.25-.396.313-.16.075-.359.112-.607.112-.297 0-.532-.037-.73-.125-.186-.087-.347-.237-.483-.462-.136-.213-.21-.5-.21-.837 0-.45.123-.8.358-1.05.236-.25.582-.363 1.016-.363zm2.997-.012c.458 0 .804.125 1.052.362.248.25.372.588.372 1.038 0 .325-.05.587-.161.787-.112.2-.26.362-.471.475-.198.112-.458.175-.755.175-.31 0-.558-.05-.768-.15-.198-.1-.36-.25-.495-.475-.137-.225-.186-.462-.186-.787 0-.45.124-.8.371-1.05.248-.25.595-.375 1.04-.375zm6.847.05c.31 0 .533.075.681.225.149.15.223.35.223.625s-.086.5-.247.65c-.161.162-.421.237-.756.237h-.458v1.025h-.842v-2.762h1.4zm4.768 0v2.75h-.842v-2.75h.842zm-2.576 0v2.074h1.313v.675h-2.155v-2.75h.842zm-6.08 0l.421 1.675.421-1.675h1.102v2.75h-.693v-2.1l-.533 2.1h-.619l-.532-2.1v2.1h-.694v-2.75h1.127zm13.002 0l1.028 1.525v-1.525h.793v2.75h-.793L69.16 15.91v1.512h-.793v-2.75h.78zm4.755 0v.675h-.854v2.074h-.842v-2.074h-.854v-.675h2.55zm-6.823-.013l1.028 2.75h-.879l-.149-.45h-.953l-.136.45h-.855l1.028-2.75h.916zm-13.906.625c-.173 0-.31.063-.409.188-.099.1-.148.3-.148.575 0 .275.05.474.148.6.1.124.236.187.422.187.185 0 .321-.063.42-.175.1-.125.15-.337.15-.637 0-.263-.05-.45-.162-.563-.099-.125-.248-.175-.42-.175zm13.436.1l-.297.988h.594l-.297-.988zm-6.885-.15h-.235v.613h.198c.16 0 .272-.025.346-.088.062-.062.1-.125.1-.212 0-.088-.025-.163-.087-.225-.062-.063-.161-.088-.322-.088zm-47.725-3.893s1.498.062 1.622 1.1c.025.075.025.587 0 .612-.18 1.1-1.266 1.253-1.467 1.273l-.024.002H10.96v-2.987h1.04zm49.694-7.293c1.127 0 1.993.213 2.575.638.595.425.942 1.1 1.053 2.024l-2.576.15c-.074-.4-.21-.687-.433-.874-.223-.188-.52-.275-.904-.275-.322 0-.557.062-.718.2-.161.137-.236.3-.236.5 0 .137.062.274.199.387.123.112.433.225.916.325 1.189.262 2.043.525 2.563.787.52.263.892.6 1.127.988.235.387.347.837.347 1.324 0 .575-.161 1.1-.47 1.575-.31.488-.756.85-1.313 1.1-.558.25-1.276.375-2.13.375-1.499 0-2.539-.287-3.12-.875-.57-.587-.892-1.325-.98-2.225l2.601-.162c.062.425.174.75.347.975.285.362.681.537 1.201.537.384 0 .694-.087.904-.275.21-.187.322-.4.322-.637 0-.225-.099-.438-.297-.625-.198-.187-.669-.35-1.4-.512-1.2-.275-2.043-.638-2.563-1.088-.52-.45-.767-1.025-.767-1.725 0-.462.136-.887.396-1.3.26-.412.656-.724 1.189-.962.532-.237 1.25-.35 2.167-.35zm8.705 0c1.127 0 1.994.213 2.576.638.594.425.94 1.1 1.052 2.024l-2.575.15c-.075-.4-.21-.687-.434-.874-.223-.188-.52-.275-.904-.275-.322 0-.557.062-.718.2-.161.137-.235.3-.235.5 0 .137.062.274.198.387.124.112.433.225.916.325 1.189.262 2.043.525 2.564.787.52.263.891.6 1.126.988.236.387.347.837.347 1.324 0 .575-.16 1.1-.47 1.575-.31.488-.756.85-1.313 1.1-.557.25-1.276.375-2.13.375-1.498 0-2.538-.287-3.12-.875-.583-.587-.904-1.325-.979-2.225l2.6-.162c.063.425.174.75.347.975.285.362.681.537 1.202.537.383 0 .693-.087.904-.275.21-.187.322-.4.322-.637 0-.225-.1-.438-.298-.625-.198-.187-.668-.35-1.399-.512-1.201-.275-2.043-.638-2.563-1.088-.508-.45-.768-1.025-.768-1.725 0-.462.136-.887.396-1.3.26-.412.657-.724 1.189-.962.532-.237 1.25-.35 2.167-.35zm-17.621.163c.805 0 1.449.112 1.932.325.495.225.904.537 1.213.937.322.413.557.888.694 1.425.148.537.223 1.112.223 1.725 0 .95-.112 1.687-.322 2.212-.21.525-.508.962-.892 1.325-.384.35-.793.587-1.226.712-.594.163-1.14.238-1.622.238h-4.05v-8.9h4.05zm-.644 2.012h-.681v4.862h.669c.57 0 .978-.063 1.213-.188.235-.125.434-.35.57-.662.136-.313.21-.837.21-1.55 0-.95-.148-1.587-.458-1.937-.31-.35-.805-.525-1.523-.525zM33.904 2.718c-1.46 0-2.65 1.125-2.65 2.525 0 1.387 1.19 2.525 2.65 2.525 1.462 0 2.65-1.125 2.65-2.525s-1.188-2.525-2.65-2.525z" transform="translate(-477.000000, -8352.000000) translate(0.000000, 7920.000000) translate(340.000000, 432.000000) translate(137.000000, 0.000000) translate(27.022222, 21.521739)"/>
                            <path fill="#2BBC5D" d="M34.029 25.809c.347 0 .619 0 1.065-.2 1.535-.813 6.724-13.598 12.197-17.535.037-.025.074-.063.1-.1.036-.05.036-.1.036-.1s0-.263-.805-.263c-4.866-.137-9.93 10.174-12.593 14.248-.037.05-.21 0-.21 0s-1.784-2.124-3.332-2.937c-.037-.012-.21-.075-.396-.062-.124 0-.842.15-1.176.5-.397.425-.384.662-.384 1.174 0 .038.024.213.074.3.384.675 2.105 3.075 3.53 4.4.21.162.544.575 1.894.575z" transform="translate(-477.000000, -8352.000000) translate(0.000000, 7920.000000) translate(340.000000, 432.000000) translate(137.000000, 0.000000) translate(27.022222, 21.521739)"/>
                        </g>
                    </g>
                </g>
            </g>
        </g>
    </g>
</svg>
