<svg xmlns="http://www.w3.org/2000/svg" width="128" height="66" viewBox="0 0 128 66">
    <g fill="none" fill-rule="evenodd">
        <g fill-rule="nonzero">
            <g>
                <g>
                    <g>
                        <g>
                            <path fill="#7B6F6B" d="M0 0L0 18.54 18.338 18.54 18.338 0z" transform="translate(-340.000000, -8352.000000) translate(0.000000, 7920.000000) translate(340.000000, 432.000000) translate(0.000000, 0.000000) translate(35.200000, 17.934783)"/>
                            <path fill="#B39F6C" d="M19.524 0L19.524 18.54 37.863 18.54 37.863 0z" transform="translate(-340.000000, -8352.000000) translate(0.000000, 7920.000000) translate(340.000000, 432.000000) translate(0.000000, 0.000000) translate(35.200000, 17.934783)"/>
                            <path fill="#9C9484" d="M39.262 0L39.262 18.54 57.6 18.54 57.6 0z" transform="translate(-340.000000, -8352.000000) translate(0.000000, 7920.000000) translate(340.000000, 432.000000) translate(0.000000, 0.000000) translate(35.200000, 17.934783)"/>
                            <path fill="#FFF" d="M9.443 3.6c1.362 0 2.392.251 3.066.77.673.52 1.01 1.219 1.01 2.132 0 .645-.16 1.147-.462 1.559-.309.404-.727.709-1.204.878v.036c1.417.358 2.108 1.253 2.108 2.686.023.467-.062.933-.248 1.362-.176.409-.45.766-.797 1.04-.412.312-.882.537-1.381.663-.662.16-1.34.238-2.02.232H4.358V3.6h5.084zm16.832 0v4.497h1.311L30.51 3.6h3.118l-3.614 5.393 3.813 5.964h-3.278v-.018h-.004l-2.994-4.783h-1.276v4.783h-2.723V3.6h2.723zm28.862-.002v11.341h-2.64V9.168l.035-1.22-.052-.016L52 9.078l-2.658 5.875h-1.93l-2.641-5.857-.472-1.142-.036.017.018 1.219v5.767h-2.574V3.6h3.206l2.995 6.626.475 1.131h.053l.481-1.13 3.012-6.629h3.207zM9.479 10.104H7.05v2.753h2.48l.204-.005c.461-.02.802-.11 1.035-.282.266-.212.39-.573.39-1.13 0-.482-.124-.823-.39-1.038-.246-.192-.689-.298-1.291-.298zm-.143-4.375H7.07v2.475h2.339l.18-.004c.407-.02.717-.11.918-.282.23-.197.337-.52.337-.968 0-.448-.124-.77-.355-.953-.23-.183-.62-.268-1.152-.268z" transform="translate(-340.000000, -8352.000000) translate(0.000000, 7920.000000) translate(340.000000, 432.000000) translate(0.000000, 0.000000) translate(35.200000, 17.934783)"/>
                            <path fill="#878787" d="M38.092 28.482c.252-.004.5.051.727.16.222.103.416.257.567.45.16.184.287.396.373.627.089.222.137.458.141.697-.002.195-.032.388-.088.574-.104.36-.314.68-.603.914-.143.111-.305.196-.478.25l1.38 2.257h-1.048l-1.271-2.055H36.43v2.06h-.886v.019l-.003-.006v-5.947h2.551zm-37.17 0v3.063l2.763-3.063h1.028l-2.321 2.633 2.445 3.314H3.81l-1.984-2.74-.903.953v1.792L0 34.429v-5.947h.922zm7.086 0l2.321 5.947h-.974l-.62-1.612H6.45l-.62 1.612h-.992l2.357-5.947h.814zm16.338 0l1.949 3.637 1.949-3.637h.992v5.947h-.94v-4.28L26.54 33.39h-.514l-1.754-3.242v4.28h-.919v-5.947h.992zm33.257 0v5.947h-.925v-5.947h.925zm-43.996 0c.252-.004.5.051.727.16.221.103.416.257.567.45.16.184.286.396.371.627.09.221.138.458.143.697-.002.195-.032.388-.09.574-.047.18-.125.349-.23.501-.1.158-.225.298-.371.413-.144.111-.306.196-.479.25l1.382 2.257H14.58l-1.274-2.055h-1.367v2.06h-.883v-5.934h2.551zm28.331 0v3.063l2.764-3.063h1.027l-2.32 2.615 2.445 3.314h-1.03l-1.984-2.74-.904.953v1.792h-.92v-5.934h.922zm13.766 0v.717l-3.49 4.389h3.49v.823h-4.66v-.716h.018l3.56-4.388h-3.489v-.825h4.571zm-5.28 0v.825h-3.03v1.683h2.619v.77h-2.619v1.81h3.12v.841h-4.04v-5.93h3.95zm-15.928 0v.825h-3.03v1.683h2.619v.77h-2.619v1.81h3.12v.841h-4.041v-5.93h3.951zm-13.748 0v.825h-1.95v5.104h-.942v-5.104h-1.964v-.825h4.856zM7.597 29.558l-.975 2.561h1.917l-.942-2.561zm30.446-.27h-1.58v2.24h1.63c.123-.003.244-.033.354-.09.11-.063.207-.148.283-.25.08-.108.14-.23.178-.359.043-.139.067-.284.07-.43.003-.146-.021-.292-.07-.43-.053-.129-.123-.25-.21-.358-.08-.102-.183-.182-.3-.233-.11-.057-.232-.087-.355-.09zm-24.488.005h-1.571l-.001 2.234h1.624c.123-.002.245-.032.354-.089.11-.062.205-.146.282-.246.08-.108.14-.23.177-.358.044-.14.068-.284.071-.43.003-.147-.022-.293-.071-.431-.052-.13-.123-.25-.21-.358-.079-.102-.182-.182-.3-.233-.11-.057-.232-.087-.355-.089zm43.976-2.549v.968h-.817v-.968h.817zm-3.435-6.021c.325-.002.649.052.956.16.271.101.528.24.761.413l-.375.612c-.063-.062-.133-.116-.209-.161-.1-.068-.207-.122-.32-.161-.13-.056-.267-.098-.407-.125-.145-.036-.294-.054-.443-.054-.336 0-.584.054-.743.179-.16.123-.253.316-.249.52-.008.106.017.212.072.303.063.085.141.156.23.212.126.064.256.118.39.161.159.054.336.09.548.144.238.044.47.115.692.212.186.077.364.173.532.286.14.112.254.253.336.413.082.186.125.387.124.59.003.235-.045.468-.142.681-.096.187-.236.347-.407.466-.181.118-.378.209-.585.268-.238.059-.482.09-.727.09-.38.005-.757-.056-1.116-.179-.352-.115-.681-.291-.974-.52l.372-.698c.053.054.159.126.266.211.132.079.268.15.407.212.16.073.326.127.497.162.184.05.375.075.566.071.252.015.504-.04.727-.16.172-.099.274-.286.266-.485 0-.112-.031-.222-.089-.317-.079-.096-.175-.175-.284-.233-.14-.077-.289-.137-.443-.18-.177-.053-.372-.107-.584-.16-.248-.072-.479-.144-.656-.212-.168-.06-.325-.152-.46-.269-.26-.22-.4-.554-.372-.896-.001-.228.047-.455.141-.663.09-.19.224-.356.39-.484.175-.136.374-.239.585-.303.235-.073.48-.109.727-.106zm-43.908-.014l2.903 3.706v-3.69h.815v5.124h-.673l-2.886-3.636v3.619H9.55v-5.123h.638zm35.063 0c.22 0 .437.05.637.143.19.088.36.216.497.377.137.157.244.34.314.537.075.194.116.4.124.609.003.17-.02.34-.072.501-.046.157-.111.308-.194.448-.086.136-.192.257-.315.36-.118.1-.257.173-.407.211l1.188 1.954h-.904l-1.099-1.79h-1.169v1.79h-.814v-5.14h2.214zm-9.462 0c.22 0 .438.05.638.143.19.088.36.217.497.377.137.157.244.34.314.537.075.194.117.4.125.609.003.17-.02.34-.072.501-.046.157-.112.308-.195.448-.087.136-.195.257-.319.36-.117.101-.257.174-.407.211l1.187 1.953h-.902l-1.099-1.791h-1.183v1.79h-.798V20.71h2.214zm-16.69-.014l-2.001 2.276 2.108 2.865h-.886L16.6 23.462l-.779.824v1.54h-.798V20.71h.798v2.633l2.392-2.647h.885zm-16.48.014c.165-.003.329.033.478.106.142.075.269.179.372.304.1.123.177.262.23.412.054.15.084.306.089.465-.002.247-.07.489-.196.7-.122.213-.308.382-.53.483.27.083.51.245.69.465.152.262.233.559.234.862.008.193-.035.384-.124.555-.082.16-.196.3-.336.413-.151.114-.318.205-.496.269-.196.057-.399.088-.602.09H0v-5.124h2.618zm47.274 0l2.003 5.124h-.85l-.533-1.398h-1.967l-.532 1.398h-.85l2.02-5.124h.71zm-42.965 0l2.002 5.124h-.85l-.532-1.398H5.58l-.531 1.398H4.2l2.019-5.124h.709zm18.443 0v4.407h2.73v.717l-3.527-.001v-5.123h.797zm5.581 0l2.003 5.124h-.85l-.532-1.398h-1.967l-.532 1.398h-.85l2.02-5.124h.708zm26.648 0v5.124l-.797-.001v-5.123h.797zm-35.648 0l2.002 5.124h-.85l-.532-1.398h-1.967l-.53 1.398h-.851l2.02-5.124h.708zm18.462 0l2 5.123h-.85l-.53-1.398h-1.97l-.524 1.398h-.85l2.015-5.123h.71zm-37.93 2.847H.796v1.577h1.63c.103 0 .205-.019.301-.054.09-.033.169-.088.23-.161.074-.069.128-.155.16-.251.035-.098.053-.201.053-.305.001-.104-.017-.207-.052-.304-.037-.09-.085-.174-.143-.25-.057-.074-.128-.135-.21-.18-.088-.043-.184-.067-.283-.072zm19.097-1.915l-.85 2.203h1.665l-.815-2.203zm9-.001l-.851 2.203 1.666.001-.816-2.204zm-24.025 0l-.852 2.203 1.667.001-.815-2.204zm42.98 0l-.848 2.203 1.666.001-.818-2.204zm-9.477 0l-.85 2.203h1.666l-.816-2.203zm5.134-.23h-1.361v1.916l.002-.003h1.399c.109.001.216-.023.314-.072.094-.055.178-.127.248-.212.07-.09.124-.194.16-.303.037-.122.055-.25.053-.377.004-.13-.02-.258-.071-.376-.05-.108-.108-.21-.177-.305-.069-.09-.16-.159-.266-.197-.093-.049-.197-.073-.301-.071zm-9.457 0h-1.361l-.002 1.913h1.399c.11.002.22-.022.32-.072.094-.055.178-.127.247-.212.07-.09.124-.194.16-.303.037-.122.055-.25.053-.377.004-.13-.02-.258-.071-.376-.049-.108-.108-.21-.177-.305-.069-.09-.16-.158-.266-.197-.094-.049-.197-.073-.302-.071zM.797 21.407v1.504h1.466c.097.002.194-.017.284-.054.087-.036.166-.091.23-.16.064-.067.112-.146.142-.234.036-.097.054-.2.053-.304.013-.196-.05-.389-.177-.537-.12-.14-.295-.218-.478-.212l-1.52-.003z" transform="translate(-340.000000, -8352.000000) translate(0.000000, 7920.000000) translate(340.000000, 432.000000) translate(0.000000, 0.000000) translate(35.200000, 17.934783)"/>
                        </g>
                    </g>
                </g>
            </g>
        </g>
    </g>
</svg>
