<svg xmlns="http://www.w3.org/2000/svg" width="152" height="48" viewBox="0 0 152 48">
    <g fill="none" fill-rule="evenodd">
        <g fill-rule="nonzero">
            <g>
                <g transform="translate(-554 -7735) translate(0 7184) translate(554 551)">
                    <rect width="152" height="48" fill="#000" rx="12"/>
                    <g fill="#FFF">
                        <path d="M38.294 18.098v6.26h-.852v-.712h-.07c-.288.505-.833.808-1.414.787-1.145 0-1.87-.902-1.87-2.328 0-1.423.732-2.324 1.87-2.324.574-.026 1.112.281 1.38.79h.067v-2.473h.889zm13.158 2.133c.304.326.442.772.377 1.212v2.915h-.889v-2.692c0-.723-.314-1.083-.971-1.083-.301-.014-.594.104-.8.324-.207.22-.307.518-.275.818v2.633h-.89v-4.503h.856v.715h.067c.231-.526.77-.848 1.344-.801.443-.034.878.136 1.181.462zm-23.854-1.84v5.967h-.927v-5.966h.927zm4.963 1.84c.303.326.442.772.377 1.212v2.915h-.89v-2.692c0-.723-.314-1.083-.97-1.083-.302-.014-.594.104-.8.324-.207.22-.308.518-.276.818v2.633h-.889v-4.503h.856v.715h.066c.231-.526.77-.848 1.344-.801.444-.034.879.136 1.182.462zm14.01-.376v4.503h-.885v-4.503h.885zm-5.918 0v4.503h-.885v-4.503h.885zm3.572-.074c.133-.002.266.01.396.037v.877c-.163-.035-.33-.053-.496-.054-.296-.027-.59.073-.81.274-.218.202-.342.487-.34.784v2.66h-.888v-4.504h.855v.69h.067c.196-.49.687-.8 1.216-.764zm-8.015.798c-.748 0-1.203.58-1.203 1.526 0 .956.45 1.53 1.203 1.53.749 0 1.212-.583 1.212-1.526 0-.94-.468-1.53-1.212-1.53zM14.022 6.31l.275.018c1.66.052 3.198.883 4.15 2.244-1.503.924-2.428 2.553-2.45 4.317.002 1.996 1.197 3.798 3.035 4.575-.353 1.149-.886 2.234-1.579 3.216-.93 1.391-1.905 2.75-3.453 2.776-1.504.034-2.009-.885-3.734-.885-1.74 0-2.28.86-3.722.92-1.474.054-2.6-1.486-3.564-2.864-1.927-2.814-3.427-7.932-1.416-11.414.944-1.697 2.71-2.774 4.651-2.837 1.476-.03 2.846.997 3.753.997.89 0 2.583-1.228 4.329-1.045zm26.583 11.76c.172.163.228.413.14.632-.086.22-.298.363-.534.363-.15.008-.295-.045-.403-.148-.109-.102-.171-.244-.172-.394-.014-.235.117-.455.33-.555.215-.1.468-.059.64.103zm5.918 0c.172.163.228.413.14.632-.086.22-.298.363-.534.363-.15.008-.295-.045-.403-.148-.109-.102-.171-.244-.172-.394-.014-.235.117-.455.33-.555.215-.1.468-.059.64.103zm-19.38-1.341c.304.004.548.253.546.558-.002.304-.25.55-.554.55-.15.001-.293-.059-.397-.165-.105-.107-.162-.252-.158-.401.007-.304.258-.547.562-.542zM42.35 4.476c2.297 0 3.812 1.816 3.812 4.622 0 2.814-1.506 4.621-3.778 4.621-1.175.062-2.281-.554-2.849-1.584h-.043v4.485h-1.858V4.57h1.799v1.507h.034c.593-1.024 1.7-1.64 2.883-1.6zm9.964 0c2.298 0 3.812 1.816 3.812 4.622 0 2.814-1.505 4.621-3.777 4.621-1.175.062-2.281-.554-2.849-1.584h-.043v4.485h-1.858V4.57h1.798v1.507h.035c.592-1.024 1.7-1.64 2.882-1.6zM65.656 1c2.624 0 4.423 1.472 4.483 3.615h-1.876c-.112-1.24-1.137-1.988-2.634-1.988-1.497 0-2.521.757-2.521 1.859 0 .878.654 1.394 2.255 1.79l1.368.336c2.548.602 3.606 1.626 3.606 3.442 0 2.323-1.85 3.778-4.794 3.778-2.753 0-4.613-1.42-4.733-3.667h1.902c.138 1.232 1.334 2.04 2.97 2.04 1.566 0 2.693-.808 2.693-1.918 0-.964-.68-1.541-2.29-1.937l-1.609-.388c-2.28-.55-3.339-1.617-3.339-3.347 0-2.143 1.867-3.615 4.519-3.615zm53.094 3.46c2.16 0 3.588 1.18 3.588 2.96v6.206h-1.78v-1.49h-.044c-.58 1.029-1.676 1.66-2.857 1.645-.77.075-1.537-.178-2.11-.698-.574-.52-.901-1.257-.902-2.03 0-1.584 1.213-2.54 3.364-2.669l2.479-.137v-.689c0-1.007-.662-1.575-1.79-1.575-.864-.115-1.68.43-1.902 1.274h-1.738c.052-1.635 1.574-2.797 3.692-2.797zm-37.39 0c2.626 0 4.296 1.79 4.296 4.64 0 2.856-1.661 4.638-4.295 4.638-2.633 0-4.294-1.782-4.294-4.639 0-2.848 1.678-4.639 4.294-4.639zm15.05 0c2.505 0 4.08 1.721 4.08 4.466v.637h-6.395v.112c-.06.674.173 1.342.64 1.832.465.49 1.12.758 1.796.733.902.084 1.752-.434 2.09-1.274h1.765c-.25 1.644-1.85 2.772-3.898 2.772-2.634 0-4.269-1.765-4.269-4.596 0-2.84 1.644-4.682 4.19-4.682zm16.597-3.252v12.418H111.2v-1.54h-.034c-.563 1.058-1.687 1.695-2.883 1.634-2.264 0-3.804-1.824-3.804-4.62 0-2.798 1.54-4.623 3.786-4.623 1.176-.058 2.281.564 2.84 1.6h.035v-4.87h1.867zM74.348 2.428v2.143h1.722v1.471h-1.722v4.992c0 .775.345 1.136 1.102 1.136.204-.003.408-.018.611-.043v1.463c-.34.064-.686.093-1.032.086-1.833 0-2.548-.688-2.548-2.444v-5.19h-1.316V4.571h1.316V2.428h1.867zm54.548 2.04c1.997 0 3.142 1.282 3.142 3.356v5.8h-1.868V8.186c0-1.36-.628-2.116-1.936-2.116-.608-.016-1.194.233-1.605.682-.41.45-.607 1.054-.539 1.659v5.215h-1.858V4.57h1.772v1.54h.043c.516-1.086 1.65-1.74 2.85-1.643zm-37.715.008c.214 0 .428.023.637.07v1.738c-.27-.083-.553-.12-.835-.113-.546-.022-1.075.196-1.447.596-.373.4-.551.944-.49 1.487v5.37h-1.858V4.571h1.772v1.54h.043c.248-.991 1.157-1.674 2.178-1.635zm-59.185-3.27l4.484 12.419h-2.04l-1.135-3.357H28.57l-1.136 3.357H25.43l4.483-12.418h2.083zm88.492 8.33l-2.229.138c-1.11.07-1.738.551-1.738 1.326 0 .792.654 1.308 1.652 1.308.584.04 1.16-.158 1.595-.549.436-.39.695-.94.72-1.525v-.697zM81.36 5.992c-1.506 0-2.4 1.162-2.4 3.107 0 1.962.894 3.107 2.4 3.107 1.506 0 2.401-1.145 2.401-3.107 0-1.954-.895-3.107-2.401-3.107zm-39.502.07c-1.42 0-2.375 1.23-2.375 3.037 0 1.824.955 3.046 2.375 3.046 1.446 0 2.393-1.196 2.393-3.046 0-1.833-.947-3.038-2.393-3.038zm9.965 0c-1.42 0-2.375 1.23-2.375 3.037 0 1.824.955 3.046 2.375 3.046 1.446 0 2.393-1.196 2.393-3.046 0-1.833-.947-3.038-2.393-3.038zm56.949 0c-1.445 0-2.393 1.195-2.393 3.037 0 1.859.948 3.046 2.393 3.046 1.429 0 2.384-1.205 2.384-3.046 0-1.825-.955-3.038-2.384-3.038zm-77.81-2.789h-.05l-1.851 5.447h3.752l-1.85-5.447zM96.41 5.965c-.612-.003-1.199.237-1.632.669-.433.431-.676 1.018-.674 1.63h4.526c.034-.606-.186-1.199-.608-1.635-.421-.436-1.006-.677-1.612-.664zM14.315.847c.1 1.315-.315 2.617-1.159 3.63-.819 1.018-2.06 1.605-3.366 1.591-.083-1.277.345-2.534 1.19-3.495.855-.974 2.046-1.59 3.335-1.726zm90.245.36l-1.23 4.543h-1.592l1.015-4.543h1.807z" transform="translate(9 10.9)"/>
                    </g>
                </g>
            </g>
        </g>
    </g>
</svg>
