<svg xmlns="http://www.w3.org/2000/svg" width="152" height="48" viewBox="0 0 152 48">
    <defs>
        <linearGradient id="lvlerepkca" x1="60.99%" x2="26.536%" y1="4.946%" y2="71.879%">
            <stop offset="0%" stop-color="#00A0FF"/>
            <stop offset="1%" stop-color="#00A1FF"/>
            <stop offset="26%" stop-color="#00BEFF"/>
            <stop offset="51%" stop-color="#00D2FF"/>
            <stop offset="76%" stop-color="#00DFFF"/>
            <stop offset="100%" stop-color="#00E3FF"/>
        </linearGradient>
        <linearGradient id="hwh26ub6ab" x1="107.685%" x2="-130.64%" y1="50%" y2="50%">
            <stop offset="0%" stop-color="#FFE000"/>
            <stop offset="41%" stop-color="#FFBD00"/>
            <stop offset="78%" stop-color="orange"/>
            <stop offset="100%" stop-color="#FF9C00"/>
        </linearGradient>
        <linearGradient id="f4z0ppoqwc" x1="86.271%" x2="-50.18%" y1="30.873%" y2="136.109%">
            <stop offset="0%" stop-color="#FF3A44"/>
            <stop offset="100%" stop-color="#C31162"/>
        </linearGradient>
        <linearGradient id="u9v9n7gzqd" x1="-18.825%" x2="42.086%" y1="-11.91%" y2="35.079%">
            <stop offset="0%" stop-color="#32A071"/>
            <stop offset="7%" stop-color="#2DA771"/>
            <stop offset="48%" stop-color="#15CF74"/>
            <stop offset="80%" stop-color="#06E775"/>
            <stop offset="100%" stop-color="#00F076"/>
        </linearGradient>
    </defs>
    <g fill="none" fill-rule="evenodd">
        <g>
            <g>
                <g transform="translate(-734 -7735) translate(0 7184) translate(734 551)">
                    <rect width="152" height="48" fill="#000" fill-rule="nonzero" rx="12"/>
                    <g>
                        <path fill="url(#lvlerepkca)" fill-rule="nonzero" d="M.673.671c-.319.394-.476.894-.44 1.4v22.12c-.034.51.135 1.014.47 1.4l.07.08 12.36-12.39v-.3L.743.601l-.07.07z" transform="translate(9.767 10.943)"/>
                        <path fill="url(#hwh26ub6ab)" fill-rule="nonzero" d="M17.233 17.411l-4.1-4.13v-.3l4.1-4.13.09.06 4.91 2.78c1.4.79 1.4 2.09 0 2.89l-4.89 2.78-.11.05z" transform="translate(9.767 10.943)"/>
                        <path fill="url(#f4z0ppoqwc)" fill-rule="nonzero" d="M17.353 17.361l-4.22-4.23-12.46 12.46c.583.519 1.453.548 2.07.07l14.61-8.3" transform="translate(9.767 10.943)"/>
                        <path fill="url(#u9v9n7gzqd)" fill-rule="nonzero" d="M17.353 8.911L2.743.611C2.13.126 1.257.151.673.671l12.46 12.46 4.22-4.22z" transform="translate(9.767 10.943)"/>
                        <path fill="#000" fill-rule="nonzero" d="M17.233 17.261l-14.49 8.25c-.592.447-1.408.447-2 0l-.07.07.07.08c.592.447 1.408.447 2 0l14.61-8.3-.12-.1z" opacity=".2" transform="translate(9.767 10.943)"/>
                        <path fill="#000" fill-rule="nonzero" d="M.673 25.451c-.321-.397-.479-.901-.44-1.41v.15c-.034.51.135 1.014.47 1.4l.07-.07-.1-.07zM22.233 14.431l-5 2.83.09.1 4.91-2.79c.59-.25.997-.802 1.06-1.44-.127.577-.52 1.06-1.06 1.3z" opacity=".12" transform="translate(9.767 10.943)"/>
                        <path fill="#FFF" fill-rule="nonzero" d="M2.743.751l19.49 11.08c.54.24.933.723 1.06 1.3-.063-.638-.47-1.19-1.06-1.44L2.743.611c-1.39-.8-2.51-.14-2.51 1.46v.15c0-1.6 1.12-2.26 2.51-1.47z" opacity=".25" transform="translate(9.767 10.943)"/>
                        <path fill="#FFF" d="M34.179 19.285c.954-.001 1.734.291 2.315.875.58.583.87 1.347.87 2.268 0 .921-.29 1.685-.87 2.267-.581.586-1.361.877-2.315.876h-1.961v-6.286zm7.826 0v.948h-2.772v1.729h2.499v.932h-2.5v1.728h2.773v.949h-3.753v-6.286h3.753zm15.44 0v5.337h2.636v.949h-3.617v-6.286h.98zm4.269 0v6.286h-.981v-6.286h.98zm2.305 0l2.827 4.524-.025-.86v-3.664h.982v6.286h-.971l-2.964-4.755.025.862v3.893h-.982v-6.286h1.108zm-19.991 0l2.826 4.523-.024-.859v-3.664h.98v6.286h-.97l-2.963-4.754.024.861v3.893h-.981v-6.286h1.108zm9.516 0l2.37 6.286h-1.082l-.587-1.649h-2.416l-.596 1.649H50.15l2.37-6.286h1.023zm-19.365.948h-.98v4.389h.98c.608 0 1.091-.152 1.465-.454l.135-.12c.388-.381.586-.913.586-1.62 0-.701-.197-1.232-.586-1.616-.391-.384-.916-.579-1.6-.579zm18.854.359l-.87 2.399 1.739.001-.87-2.4zm-21.887-1.307v2.122h-.913v-2.122h.913zM61.933 5.243c.887 0 1.59.394 1.957.831h.057v-.606h1.549v6.675c0 2.746-1.62 3.873-3.535 3.873-1.802 0-2.887-1.211-3.295-2.197l1.422-.591c.254.605.874 1.323 1.873 1.323 1.225 0 1.986-.76 1.986-2.182v-.535h-.057c-.366.45-1.07.844-1.957.844-1.86 0-3.563-1.619-3.563-3.703 0-2.098 1.704-3.732 3.563-3.732zm36.762.219l1.94 4.738h.056l1.87-4.738h1.813l-4.485 10.305h-1.701l1.659-3.684-2.91-6.621h1.758zM72.55 5.243c1.929 0 2.873 1.535 3.183 2.366l.169.422-4.972 2.056c.38.747.972 1.127 1.803 1.127.83 0 1.408-.408 1.83-1.028l1.268.845c-.408.605-1.394 1.647-3.098 1.647-2.112 0-3.69-1.633-3.69-3.717 0-2.211 1.592-3.718 3.507-3.718zM36.13 1.131c1.76 0 3.014.69 3.957 1.592l-1.112 1.112c-.676-.634-1.592-1.127-2.845-1.127-2.324 0-4.14 1.873-4.14 4.197 0 2.323 1.816 4.196 4.14 4.196 1.507 0 2.366-.605 2.915-1.155.45-.45.746-1.098.859-1.985H36.13V6.384h5.309c.056.282.084.619.084.986 0 1.182-.323 2.647-1.366 3.689-1.013 1.056-2.31 1.619-4.027 1.619-3.183 0-5.858-2.591-5.858-5.773 0-3.183 2.675-5.774 5.858-5.774zm17.825 4.112c2.056 0 3.73 1.563 3.73 3.718 0 2.14-1.674 3.717-3.73 3.717s-3.732-1.577-3.732-3.717c0-2.155 1.676-3.718 3.732-3.718zm-8.141 0c2.056 0 3.73 1.563 3.73 3.718 0 2.14-1.674 3.717-3.73 3.717s-3.732-1.577-3.732-3.717c0-2.155 1.676-3.718 3.732-3.718zm47.693-.02c1.87 0 3.318 1.083 3.318 3.023v4.189H95.25v-.844h-.056c-.38.577-.984 1.069-2.081 1.069-1.434 0-2.713-.942-2.713-2.404 0-1.603 1.589-2.46 3.149-2.46.773 0 1.406.253 1.7.421v-.112c-.013-.9-.87-1.406-1.714-1.406-.604 0-1.181.197-1.49.802l-1.448-.605c.506-1.153 1.729-1.673 2.91-1.673zM89.5 1.526v10.927h-1.63V1.526h1.63zm-21.245-.001v10.928h-1.633V1.525h1.633zm15.13.001c1.808 0 3.585 1.309 3.585 3.393 0 2.085-1.777 3.394-3.585 3.394h-2.277v4.14h-1.631V1.526zM62.074 6.708c-1.127 0-2.07.957-2.07 2.267 0 1.295.943 2.239 2.07 2.239 1.112 0 1.985-.944 1.985-2.239 0-1.31-.873-2.267-1.985-2.267zm-16.26 0c-1.127 0-2.098.915-2.098 2.253 0 1.324.97 2.253 2.098 2.253 1.126 0 2.098-.929 2.098-2.253 0-1.338-.972-2.253-2.098-2.253zm8.14 0c-1.126 0-2.098.915-2.098 2.253 0 1.324.972 2.253 2.099 2.253 1.126 0 2.098-.929 2.098-2.253 0-1.338-.972-2.253-2.098-2.253zM93.76 9.117c-.801 0-1.73.323-1.73 1.167 0 .661.746.928 1.28.928.942 0 1.814-.717 1.94-1.729-.436-.211-.773-.366-1.49-.366zM72.607 6.68c-.83 0-1.985.732-1.943 2.168l3.323-1.38c-.183-.465-.732-.788-1.38-.788zm10.82-3.633h-2.32v3.745h2.32c1.22 0 1.912-1.026 1.912-1.873 0-.863-.692-1.872-1.912-1.872z" transform="translate(9.767 10.943)"/>
                    </g>
                </g>
            </g>
        </g>
    </g>
</svg>
