<svg xmlns="http://www.w3.org/2000/svg" width="152" height="48" viewBox="0 0 152 48">
    <g fill="none" fill-rule="evenodd">
        <g>
            <g>
                <g transform="translate(-820.000000, -7735.000000) translate(0.000000, 7184.000000) translate(468.000000, 551.000000) translate(352.000000, 0.000000)">
                    <rect width="152" height="48" fill="#000" fill-rule="nonzero" rx="12"/>
                    <g>
                        <path fill="#CB142C" d="M7.692.708h10.616c2.675 0 3.645.278 4.623.801.977.523 1.745 1.29 2.268 2.268.523.978.801 1.948.801 4.623v10.616c0 2.675-.278 3.645-.801 4.623-.523.977-1.29 1.745-2.268 2.268-.978.523-1.948.801-4.623.801H7.692c-2.675 0-3.645-.278-4.623-.801-.977-.523-1.745-1.29-2.268-2.268C.278 22.66 0 21.69 0 19.016V8.4c0-2.675.278-3.645.801-4.623.523-.977 1.29-1.745 2.268-2.268C4.047.986 5.017.708 7.692.708z" transform="translate(9.000000, 10.342550)"/>
                        <path fill="#FFF" fill-rule="nonzero" d="M56.689 19.381c.361 0 .71.071 1.045.214.336.142.624.334.864.575l-.56.702-.153-.116c-.155-.11-.313-.202-.474-.273-.215-.095-.456-.143-.722-.143-.298 0-.535.065-.712.195-.178.13-.266.309-.266.537 0 .12.026.223.08.309.054.085.127.161.219.228.092.066.198.126.318.18.12.054.244.106.37.157l.846.351.178.08c.116.057.224.119.325.187.153.1.284.218.395.351.11.133.198.287.261.46.063.175.095.376.095.604 0 .253-.05.49-.152.713-.101.221-.249.416-.442.584-.193.168-.427.3-.703.399l-.17.053c-.115.031-.237.055-.365.07l-.048.005-.22.494.131.037c.166.053.298.122.397.205.123.105.185.255.185.451 0 .305-.149.53-.447.675-.297.146-.721.231-1.273.257l-.095-.476.159-.012c.3-.026.513-.068.635-.125.142-.067.213-.17.213-.309 0-.108-.05-.196-.151-.266l-.059-.034c-.11-.053-.284-.096-.521-.127l.375-.768-.176-.021c-.244-.038-.483-.104-.717-.2-.39-.158-.733-.383-1.03-.674l.645-.75.173.149c.178.142.374.261.587.359.285.13.57.195.855.195.355 0 .624-.073.808-.219.184-.146.275-.339.275-.58 0-.126-.023-.234-.07-.323-.048-.088-.115-.166-.2-.232-.086-.067-.187-.128-.304-.186-.117-.056-.246-.114-.385-.17l-.855-.371-.151-.069c-.101-.049-.201-.105-.3-.169-.15-.095-.284-.209-.404-.341-.12-.133-.217-.289-.29-.466-.073-.177-.109-.38-.109-.608 0-.247.052-.477.157-.689.104-.212.248-.397.432-.556.184-.158.404-.281.66-.37.257-.089.537-.133.841-.133zm-20.514-.38v5.567l.005.092c.01.085.033.148.071.188.05.054.105.081.162.081h.07l.027-.002c.02-.003.044-.009.074-.017l.142.817-.093.034c-.132.04-.294.061-.486.061-.393 0-.669-.117-.827-.351-.158-.235-.237-.555-.237-.96v-5.51h1.092zm3.225 1.928c.317 0 .595.054.836.162.24.108.442.26.603.456.162.196.284.43.366.703.082.272.123.57.123.893 0 .108-.004.209-.014.304s-.02.171-.033.228h-2.964l.028.173c.067.335.205.599.414.791.244.225.556.338.935.338.203 0 .392-.03.566-.09.174-.06.346-.145.518-.253l.37.684-.171.105c-.176.1-.366.185-.57.257-.272.095-.557.142-.855.142-.323 0-.624-.055-.902-.166-.28-.111-.523-.271-.732-.48-.209-.209-.372-.464-.49-.765-.116-.3-.175-.644-.175-1.03 0-.38.06-.723.18-1.026.12-.305.28-.561.48-.77.2-.209.43-.37.689-.485.26-.114.526-.17.798-.17zm-5.614.115v4.664h-1.093v-4.664h1.093zm11.484-1.549v2.822h.029l2.214-2.822h1.225l-1.91 2.422 2.233 3.791h-1.216l-1.681-2.926-.894 1.111v1.815h-1.102v-6.213h1.102zm8.213 0v.931h-2.641v1.587h2.233v.93h-2.233v1.834h2.736v.931H49.74v-6.213h3.743zm10.098 0v.931h-2.65v1.758h2.26v.93h-2.26v2.594h-1.102v-6.213h3.752zm4.736 0v.931h-2.641v1.587h2.232v.93h-2.233v1.834h2.737v.931h-3.839v-6.213h3.744zm2.93 0l.233.005c.839.04 1.502.294 1.99.765.532.512.798 1.282.798 2.308 0 .513-.068.966-.204 1.358-.136.393-.333.72-.59.984-.256.263-.566.46-.93.594-.364.133-.778.199-1.24.199h-1.72v-6.213h1.663zm5.277 0v6.213h-1.102v-6.213h1.102zm2.608 0l1.938 3.496.636 1.32h.038l-.027-.33c-.019-.226-.04-.463-.063-.71-.035-.37-.052-.73-.052-1.078v-2.698h1.054v6.213h-1.13l-1.938-3.496-.637-1.32h-.038l.027.334c.019.227.04.46.063.701.035.361.052.716.052 1.064v2.717h-1.054v-6.213h1.13zm-7.961.893h-.485v4.427h.485c.633 0 1.12-.182 1.458-.546.34-.364.508-.93.508-1.696 0-.76-.17-1.314-.513-1.663-.341-.348-.826-.522-1.453-.522zm-31.743 1.387c-.278 0-.522.098-.731.295-.209.196-.339.484-.39.864h2.072c0-.361-.078-.644-.233-.85-.155-.206-.395-.309-.718-.309zm-6.183-2.793c.196 0 .357.059.484.176.127.117.19.267.19.451s-.063.332-.19.446c-.127.114-.288.172-.484.172-.197 0-.358-.058-.485-.172-.127-.113-.19-.262-.19-.446s.063-.334.19-.451c.127-.117.288-.176.485-.176zm42.728-1.235c.196 0 .358.057.484.171.127.114.19.263.19.447 0 .183-.063.334-.19.45-.126.118-.288.176-.484.176s-.358-.058-.484-.175c-.127-.117-.19-.268-.19-.451 0-.184.063-.333.19-.447.126-.114.288-.171.484-.171zM109.446 3.87l1.53 4.338.131.391c.087.265.172.54.256.824.126.426.255.849.387 1.269h.072l.164-.619.169-.632c.114-.426.225-.837.333-1.233l1.332-4.338h1.998l-3.204 9.234-.11.296c-.15.386-.311.737-.484 1.054-.216.396-.465.735-.747 1.017-.282.282-.606.498-.972.648-.366.15-.789.225-1.269.225-.24 0-.45-.015-.63-.045s-.354-.075-.522-.135l.378-1.62.089.025.208.056c.114.03.225.045.333.045.468 0 .843-.141 1.125-.423.282-.282.495-.645.639-1.089l.162-.558-3.474-8.73h2.106zm-60.798-.216c.552 0 1.041.105 1.467.315.426.21.789.513 1.089.909.3.396.528.87.684 1.422.156.552.234 1.17.234 1.854 0 .756-.105 1.431-.315 2.025-.21.594-.489 1.092-.837 1.494-.348.402-.75.711-1.206.927-.456.216-.93.324-1.422.324-.384 0-.768-.084-1.152-.252-.384-.168-.756-.408-1.116-.72l.054 1.476V16.2h-2.07V3.87h1.71l.144.936h.072l.228-.182c.311-.236.65-.446 1.014-.628.456-.228.93-.342 1.422-.342zm9.852 0c.552 0 1.041.105 1.467.315.426.21.789.513 1.089.909.3.396.528.87.684 1.422.156.552.234 1.17.234 1.854 0 .756-.105 1.431-.315 2.025-.21.594-.489 1.092-.837 1.494-.348.402-.75.711-1.206.927-.456.216-.93.324-1.422.324-.384 0-.768-.084-1.152-.252-.384-.168-.756-.408-1.116-.72l.054 1.476V16.2h-2.07V3.87h1.71l.144.936h.072l.228-.182c.311-.236.65-.446 1.014-.628.456-.228.93-.342 1.422-.342zm37.902 0c.6 0 1.128.102 1.584.306.456.204.837.492 1.143.864.306.372.537.816.693 1.332.156.516.234 1.08.234 1.692 0 .204-.009.396-.027.576-.018.18-.039.324-.063.432H94.35l.034.232c.12.68.387 1.212.803 1.595.462.426 1.053.639 1.773.639.384 0 .741-.057 1.071-.171.33-.114.657-.273.981-.477l.702 1.296-.258.16c-.351.205-.733.38-1.146.524-.516.18-1.056.27-1.62.27-.612 0-1.182-.105-1.71-.315-.528-.21-.99-.513-1.386-.909-.396-.396-.705-.879-.927-1.449-.222-.57-.333-1.221-.333-1.953 0-.72.114-1.368.342-1.944.228-.576.531-1.062.909-1.458.378-.396.813-.702 1.305-.918.492-.216.996-.324 1.512-.324zm-6-3.654v10.548l.004.12c.013.189.06.326.14.411.096.102.198.153.306.153h.135l.049-.004c.037-.005.084-.016.14-.032l.27 1.548-.145.055c-.255.083-.573.125-.953.125-.744 0-1.266-.222-1.566-.666-.3-.444-.45-1.05-.45-1.818V0h2.07zm-4.578 0v10.548l.004.12c.013.189.06.326.14.411.096.102.198.153.306.153h.135l.049-.004c.037-.005.084-.016.14-.032l.27 1.548-.145.055c-.255.083-.573.125-.953.125-.744 0-1.266-.222-1.566-.666-.3-.444-.45-1.05-.45-1.818V0h2.07zm-7.548 3.654c1.104 0 1.929.327 2.475.981.546.654.819 1.599.819 2.835v5.238h-1.71l-.144-.972h-.072l-.24.195c-.326.252-.669.469-1.029.651-.45.228-.939.342-1.467.342-.78 0-1.41-.237-1.89-.711s-.72-1.101-.72-1.881c0-.468.099-.885.297-1.251.198-.366.51-.681.936-.945.426-.264.966-.486 1.62-.666.654-.18 1.437-.318 2.349-.414-.012-.228-.045-.447-.099-.657-.054-.21-.144-.396-.27-.558-.126-.162-.291-.288-.495-.378-.204-.09-.456-.135-.756-.135-.432 0-.855.084-1.269.252-.414.168-.819.372-1.215.612l-.756-1.386.302-.182c.413-.236.864-.446 1.354-.628.612-.228 1.272-.342 1.98-.342zM68.892.72c.84 0 1.551.153 2.133.459.582.306 1.059.651 1.431 1.035l-1.116 1.35-.184-.167c-.25-.216-.522-.404-.815-.562-.366-.198-.825-.297-1.377-.297-.528 0-1.005.099-1.431.297-.426.198-.792.48-1.098.846-.306.366-.543.813-.711 1.341-.168.528-.252 1.122-.252 1.782 0 1.344.303 2.397.909 3.159.606.762 1.503 1.143 2.691 1.143.336 0 .654-.045.954-.135.3-.09.546-.219.738-.387V8.046h-2.232v-1.71h4.104v5.184l-.178.166c-.37.324-.836.602-1.397.833-.654.27-1.383.405-2.187.405-.792 0-1.527-.132-2.205-.396-.678-.264-1.266-.654-1.764-1.17-.498-.516-.885-1.152-1.161-1.908s-.414-1.62-.414-2.592c0-.96.144-1.821.432-2.583.288-.762.681-1.407 1.179-1.935s1.086-.93 1.764-1.206C67.383.858 68.112.72 68.892.72zM39.246.936l3.834 11.772h-2.196l-.918-3.186h-3.96l-.918 3.186h-2.124L36.798.936h2.448zm66.918 2.718c.42 0 .756.06 1.008.18l-.36 1.8-.152-.044c-.099-.027-.192-.048-.28-.064-.132-.024-.294-.036-.486-.036-.348 0-.714.135-1.098.405-.384.27-.714.741-.99 1.413v5.4h-2.07V3.87h1.71l.144 1.566h.072l.138-.239c.283-.46.615-.822.996-1.084.444-.306.9-.459 1.368-.459zM79.5 8.352l-.292.038c-.473.067-.88.15-1.22.25-.408.12-.738.255-.99.405-.252.15-.432.321-.54.513-.108.192-.162.396-.162.612 0 .396.12.684.36.864.24.18.546.27.918.27.36 0 .687-.084.981-.252.294-.168.609-.408.945-.72v-1.98zM57.924 5.364c-.624 0-1.272.33-1.944.99v4.122l.193.156c.255.193.503.334.743.42.3.108.582.162.846.162.588 0 1.08-.255 1.476-.765.396-.51.594-1.269.594-2.277 0-.888-.15-1.578-.45-2.07-.3-.492-.786-.738-1.458-.738zm-9.852 0c-.624 0-1.272.33-1.944.99v4.122l.193.156c.255.193.503.334.743.42.3.108.582.162.846.162.588 0 1.08-.255 1.476-.765.396-.51.594-1.269.594-2.277 0-.888-.15-1.578-.45-2.07-.3-.492-.786-.738-1.458-.738zm-10.05-2.808h-.072l-.252.988-.252.983c-.168.654-.348 1.293-.54 1.917l-.414 1.44h3.006l-.414-1.44-.189-.63c-.124-.424-.244-.856-.36-1.296-.174-.66-.345-1.314-.513-1.962zm58.434 2.7c-.528 0-.99.186-1.386.558-.396.372-.642.918-.738 1.638h3.924c0-.684-.147-1.221-.441-1.611-.294-.39-.747-.585-1.359-.585zM9.25 5.208c0 2.071 1.679 3.75 3.75 3.75 2.004 0 3.641-1.572 3.745-3.55l.005-.2h.5c0 2.347-1.903 4.25-4.25 4.25-2.278 0-4.138-1.793-4.245-4.044l-.005-.206h.5zM9.072 13.708v1.917c0 .545-.271.836-.765.836-.496 0-.77-.3-.77-.859V13.71h-.682v1.915c0 .943.526 1.483 1.443 1.483.926 0 1.457-.55 1.457-1.51v-1.89h-.683zm2.513 0l-1.483 3.348h.697l.286-.649.02-.048h1.54l.303.697h.716l-1.47-3.328-.012-.02h-.597zm4.06 0l-.765 2.304-.744-2.302h-.726l1.173 3.348h.565l.766-2.2.765 2.2h.57l1.17-3.348h-.708l-.745 2.302-.765-2.304h-.557zm6.681 0v3.345H23v-3.345h-.674zM3 13.708v3.35h.683v-1.36h1.542v1.36h.683v-3.35h-.683v1.351H3.683v-1.35H3zm15.97.002v3.345h2.542v-.61h-1.868v-.829h1.242v-.61h-1.242v-.686h1.803v-.61H18.97zm-7.096.846l.487 1.121h-.002l.033.077H11.36l.033-.077.482-1.121z" transform="translate(9.000000, 10.342550)"/>
                    </g>
                </g>
            </g>
        </g>
    </g>
</svg>
